<svg xmlns="http://www.w3.org/2000/svg" xmlns:xlink="http://www.w3.org/1999/xlink" width="108" height="105" viewBox="0 0 108 105">
  <defs>
    <path id="logo-a" d="M97.6117883,42.7801279 L97.4924601,39.3690222 C97.2020229,36.309423 96.6881724,33.7606926 95.88947,31.0154742 C94.2920652,25.6541582 91.6837154,20.5735393 88.1091032,16.2788725 C81.0548295,7.6277855 70.565577,1.90717705 59.512206,0.76754651 C56.7865642,0.475621446 53.9157038,0.453165672 51.3017687,0.677723413 C48.1907391,0.986490307 45.5656333,1.65454959 42.8120648,2.62576182 C37.4110493,4.58502811 32.5518109,7.8860269 28.7426148,12.0964845 C21.0181014,20.5398556 17.7786091,32.5649227 20.8449561,43.76474 C23.9113031,55.0431525 34.3502876,63.3910866 45.4539266,63.946867 C50.7990889,64.3903685 56.8312469,62.9026735 61.1542935,59.4276424 C65.5164373,56.0255927 68.4208097,51.0011132 69.1971708,45.7352342 C70.0628972,40.5928619 68.6553936,34.8441837 65.0863668,31.0884555 C61.6569733,27.2429042 56.412347,25.5924048 51.7821072,26.2548501 C56.512883,26.5018636 60.7018816,29.1348032 63.0142088,32.7389549 C65.4661694,36.3150369 65.6169733,40.7556663 64.4775657,44.7247243 C63.3381581,48.6544848 60.6739549,51.9667115 57.339512,53.8866802 C53.9938985,55.8403325 50.2908237,56.4297966 46.369921,55.7168258 C38.7626995,54.397549 32.6020789,48.2109833 31.239258,41.1037308 C29.9322904,33.9627946 32.5573962,25.7945068 37.7685105,20.6745903 C48.1460564,9.72740038 68.1415431,12.9778737 77.3461694,25.1039917 C87.3606688,36.7641524 85.5398507,56.0592763 75.7599353,68.713105 C72.5605961,72.9625924 68.6643806,76.6429109 63.9209639,79.3781854 C61.5934752,80.7203235 55.5513703,83.7840305 49.0601489,84.4104183 C42.5689275,85.0368061 35.1167135,83.2284061 31.9822067,82.1230397 C25.8279373,79.9527709 18.6210415,74.1180638 17.8379,73.4310011 C14.1877563,69.7711953 11.712313,66.7523331 10.0813447,63.946867 C2.83810829,51.4876097 4.14986124,39.5777979 5.97493308,32.7156621 C6.43120104,29.5133321 8.59744548,25.094102 10.0813447,22.1937206 C7.40800055,25.1178158 6.18100673,26.3516366 5.06239716,28.140905 C3.94378759,29.9301734 3.14794148,31.6456007 1.86852145,36.3754679 C-0.869086309,47.3857336 1.1006896,56.8380474 1.41225349,58.3343024 C2.04129749,61.3552244 4.40319278,68.214578 5.97493308,70.6861468 C7.0558718,72.3859278 8.51437251,74.7289661 10.0813447,76.6333311 C11.6483169,78.5376961 14.6440243,81.4825765 14.6440243,81.4825765 C14.6440243,81.4825765 17.7631097,84.2997236 19.2067039,85.3253697 C20.650298,86.3510159 23.7693835,88.3447123 23.7693835,88.3447123 C23.7693835,88.3447123 28.2123905,91.0017187 33.3510106,92.6449812 C38.4896308,94.2882437 44.0325652,94.8323841 46.1265135,94.9323598 C56.1644086,95.3898355 60.7270882,93.3769452 60.7270882,93.3769452 C60.7270882,93.3769452 67.0920823,91.784344 73.502591,88.070224 C79.9130997,84.3561041 83.2808195,80.654526 86.2780939,77.0908068 C93.2206609,68.9562026 96.8780737,58.175733 97.5650694,47.3857336 C97.6320934,46.0440011 97.7102881,44.6910407 97.6767761,43.3436942 L97.6117883,42.7801279 Z"/>
    <filter id="logo-b" width="115.4%" height="115.9%" x="-7.7%" y="-7.9%" filterUnits="objectBoundingBox">
      <feOffset in="SourceAlpha" result="shadowOffsetOuter1"/>
      <feGaussianBlur in="shadowOffsetOuter1" result="shadowBlurOuter1" stdDeviation="2.5"/>
      <feColorMatrix in="shadowBlurOuter1" values="0 0 0 0 1   0 0 0 0 1   0 0 0 0 1  0 0 0 0.25 0"/>
    </filter>
  </defs>
  <g fill="none" fill-rule="evenodd" transform="translate(5 5)">
    <g>
      <use fill="#000" filter="url(#logo-b)" xlink:href="#logo-a"/>
      <use fill="#FFF" xlink:href="#logo-a"/>
    </g>
  </g>
</svg>
